<?xml version="1.0" standalone="no"?>
<!DOCTYPE svg PUBLIC "-//W3C//DTD SVG 20010904//EN"
 "http://www.w3.org/TR/2001/REC-SVG-20010904/DTD/svg10.dtd">
<svg version="1.0" xmlns="http://www.w3.org/2000/svg"
 width="225.000000pt" height="225.000000pt" viewBox="0 0 225.000000 225.000000"
 preserveAspectRatio="xMidYMid meet">
<metadata>
Created by potrace 1.11, written by Peter Selinger 2001-2013
</metadata>
<g transform="translate(0.000000,225.000000) scale(0.100000,-0.100000)"
fill="#000000" stroke="none">
<path d="M1166 2128 c10 -12 13 -18 7 -14 -25 14 -52 15 -47 1 4 -9 -4 -13
-29 -11 -30 1 -34 -2 -32 -20 1 -17 -2 -20 -18 -16 -12 3 -18 1 -14 -5 3 -5 0
-10 -7 -10 -8 0 -12 7 -9 16 3 12 2 12 -7 -2 -6 -9 -8 -23 -4 -30 5 -7 0 -6
-11 3 -10 8 -16 10 -12 3 4 -6 0 -19 -9 -27 -18 -18 -39 -22 -28 -4 4 6 3 8
-3 5 -6 -4 -8 -19 -5 -33 3 -20 2 -25 -7 -19 -8 4 -11 2 -9 -6 1 -8 -2 -14 -7
-14 -6 0 -9 6 -9 12 1 7 -2 10 -8 7 -5 -3 -6 -14 -3 -24 3 -10 1 -21 -5 -25
-8 -5 -7 -12 2 -23 11 -13 10 -15 -4 -9 -12 4 -15 2 -11 -8 3 -8 10 -12 16 -8
6 3 7 1 3 -6 -4 -6 -12 -9 -17 -6 -5 4 -9 0 -9 -7 0 -20 -37 -50 -44 -35 -3 8
-9 6 -20 -6 -14 -18 -14 -18 -19 0 -4 17 -5 17 -6 0 -1 -11 -6 -15 -12 -11 -7
4 -6 -2 2 -17 11 -23 11 -23 -6 -9 -16 13 -19 13 -31 -5 -7 -11 -21 -29 -30
-40 -13 -17 -13 -15 1 10 l18 30 -26 -24 c-15 -13 -24 -28 -21 -32 3 -5 0 -9
-6 -9 -6 0 -9 -4 -6 -9 3 -5 -1 -11 -9 -14 -10 -4 -12 -1 -9 11 5 14 4 14 -6
-1 -9 -14 -9 -22 2 -34 9 -12 9 -15 1 -9 -13 7 -16 -2 -14 -34 0 -10 -1 -11
-5 -2 -3 6 -10 12 -15 12 -5 0 -8 -6 -7 -12 2 -7 -3 -12 -10 -10 -8 1 -11 -2
-7 -8 3 -6 12 -7 18 -4 8 5 8 3 0 -7 -7 -7 -13 -24 -13 -37 0 -13 -4 -21 -8
-18 -4 2 -9 -4 -9 -15 -2 -16 1 -18 20 -8 21 10 21 9 3 -5 -13 -11 -23 -12
-31 -6 -9 7 -12 4 -11 -13 2 -30 15 -49 29 -40 7 4 6 0 -2 -10 -16 -20 -25
-23 -15 -4 6 9 4 9 -6 0 -12 -11 -11 -15 6 -28 13 -10 14 -13 3 -9 -13 4 -16
-2 -14 -28 1 -18 -3 -40 -9 -48 -10 -13 -9 -13 7 -1 16 13 25 2 10 -13 -11
-11 -12 -36 -2 -36 6 0 7 -5 4 -10 -4 -6 -11 -8 -16 -5 -15 10 -10 -2 7 -20
14 -13 14 -19 4 -28 -10 -9 -11 -9 -5 2 6 10 4 12 -5 6 -10 -6 -10 -10 2 -19
12 -9 13 -14 3 -23 -7 -7 -17 -9 -21 -5 -5 4 -2 -2 6 -13 8 -11 10 -17 6 -13
-13 11 -39 -29 -30 -45 6 -9 5 -9 -7 0 -12 10 -15 8 -16 -8 -1 -13 2 -17 10
-12 7 4 6 0 -2 -10 -7 -9 -19 -17 -26 -17 -9 0 -11 -8 -7 -22 3 -14 2 -19 -6
-14 -8 5 -12 0 -12 -13 0 -12 -7 -21 -16 -21 -8 0 -13 -4 -9 -9 8 -14 -17 -62
-30 -57 -7 2 -12 -4 -10 -17 2 -30 -5 -40 -19 -28 -9 8 -13 7 -13 -4 0 -8 5
-15 11 -15 6 0 4 -4 -4 -10 -9 -6 -17 -5 -22 3 -6 9 -8 9 -8 0 0 -6 5 -15 11
-19 8 -5 6 -10 -5 -16 -9 -5 -14 -13 -11 -19 4 -5 -1 -12 -9 -15 -9 -3 -13
-10 -10 -15 3 -5 0 -9 -5 -9 -6 0 -11 -9 -11 -21 0 -15 -4 -19 -16 -15 -14 5
-15 4 -5 -8 10 -11 8 -17 -8 -28 -12 -8 -18 -18 -14 -21 3 -4 -1 -7 -10 -7 -9
0 -19 -5 -23 -12 -5 -8 -2 -9 9 -5 9 3 19 2 22 -4 4 -5 3 -9 -2 -8 -20 3 -34
-2 -28 -11 3 -6 -2 -10 -12 -11 -10 0 -13 -3 -6 -5 8 -4 7 -11 -4 -24 -9 -10
-21 -16 -26 -13 -5 3 -3 -5 4 -18 12 -23 11 -23 -7 -9 -18 14 -18 14 -1 -6 9
-11 14 -25 10 -29 -5 -5 1 -3 11 5 13 10 17 10 12 2 -9 -15 6 -16 22 0 9 9 12
8 12 -8 0 -14 2 -16 9 -5 5 7 23 14 40 16 17 1 28 -1 25 -6 -8 -13 10 -11 25
4 9 7 11 7 8 1 -4 -7 0 -14 8 -17 9 -4 12 -1 9 7 -3 7 2 13 10 13 8 0 13 -4
11 -8 -3 -4 2 -9 10 -12 9 -4 12 -1 9 7 -3 7 2 13 10 13 8 0 13 -4 11 -8 -3
-4 2 -9 10 -12 9 -4 12 -1 9 7 -3 7 2 13 10 13 8 0 13 -4 10 -9 -3 -4 -2 -8 3
-9 4 0 18 -2 30 -3 14 -2 19 2 16 11 -8 19 4 16 26 -9 11 -11 18 -25 15 -29
-3 -5 1 -6 9 -3 8 3 14 -2 14 -11 0 -9 -6 -14 -13 -11 -8 3 -11 0 -7 -9 3 -8
9 -13 13 -10 4 3 10 -2 13 -10 4 -9 1 -12 -9 -8 -20 7 -18 -14 4 -27 16 -11
16 -11 -1 -6 -9 3 -17 1 -17 -4 0 -6 4 -10 9 -10 5 0 12 -7 15 -16 5 -13 4
-14 -7 -6 -10 9 -14 8 -14 -3 0 -8 4 -15 8 -15 4 0 9 -7 13 -15 4 -13 2 -14
-14 -5 -26 14 -25 6 2 -20 13 -12 19 -20 13 -18 -5 2 -10 -1 -10 -7 0 -5 4 -9
8 -7 5 1 5 -2 2 -8 -4 -6 -13 -9 -21 -6 -8 3 -11 0 -7 -9 3 -8 10 -12 17 -8 6
3 8 3 4 -2 -4 -4 -2 -15 5 -24 11 -14 10 -14 -5 -2 -21 15 -24 2 -5 -18 7 -9
7 -11 1 -8 -7 4 -14 0 -17 -8 -4 -9 -1 -12 9 -8 10 4 25 -5 41 -23 13 -16 22
-24 19 -18 -3 7 3 14 15 17 17 5 18 3 8 -9 -6 -8 -9 -17 -5 -21 3 -3 6 -1 6 5
0 7 5 12 11 12 5 0 8 -4 5 -8 -3 -5 1 -9 9 -9 8 0 12 4 10 8 -6 9 24 21 36 14
5 -4 6 2 2 11 -5 13 -3 16 10 11 9 -3 19 -2 22 3 4 6 12 10 18 10 7 0 6 -4 -3
-10 -12 -8 -10 -10 8 -10 15 0 21 4 16 12 -5 8 -2 9 11 4 15 -5 16 -4 6 8 -11
13 -8 16 16 22 15 3 39 18 52 33 13 14 20 20 16 12 -5 -9 -4 -12 3 -7 6 3 9
15 7 25 -2 10 1 24 7 32 8 11 9 10 4 -3 -3 -10 -1 -18 4 -18 6 0 10 5 10 11 0
5 5 7 12 3 8 -5 9 -2 5 11 -4 9 -3 23 3 30 6 7 9 19 8 26 -2 7 3 13 11 14 8 0
16 6 19 14 3 9 0 11 -9 5 -12 -7 -12 -5 -1 9 8 9 11 21 7 27 -4 7 2 14 14 17
12 3 21 10 21 15 0 5 -5 6 -11 2 -6 -3 -3 6 7 22 11 15 18 29 17 31 -10 11 1
12 20 2 20 -11 21 -11 8 5 -12 14 -12 16 3 10 9 -3 16 -10 16 -15 0 -5 5 -9
11 -9 6 0 8 7 5 16 -6 15 -4 15 11 3 15 -13 16 -12 9 6 -6 16 -5 18 5 7 17
-16 32 -16 23 1 -4 6 3 3 15 -7 16 -15 20 -16 16 -4 -5 12 1 15 27 15 46 -1
69 9 62 28 -3 8 -1 15 5 15 6 0 11 -5 11 -11 0 -5 5 -7 10 -4 6 4 8 10 6 14
-3 4 4 8 15 8 12 1 17 -3 13 -9 -4 -7 -2 -8 5 -4 9 6 9 11 1 21 -10 11 -8 13
9 10 12 -2 19 0 16 6 -4 5 1 9 10 9 10 0 13 5 9 12 -5 8 -2 9 11 4 16 -6 16
-4 4 11 -9 11 -10 14 -1 9 6 -4 12 -2 12 3 0 6 7 11 16 11 9 0 12 5 8 12 -5 8
-2 9 11 4 15 -5 16 -4 5 9 -10 12 -10 15 5 15 12 0 15 5 11 16 -5 13 -3 14 7
6 10 -8 13 -6 14 11 1 11 12 30 25 40 l23 18 -25 -5 -25 -6 23 12 c15 7 22 18
19 29 -3 13 0 16 11 12 12 -5 14 -1 10 20 -3 15 -1 27 3 27 5 0 8 6 6 13 -1 6
5 11 13 9 8 -2 12 0 8 4 -4 4 -2 14 5 22 6 9 8 13 2 10 -5 -3 -16 0 -23 8 -7
8 -10 14 -6 14 3 0 0 8 -7 17 -12 15 -12 16 4 10 11 -4 16 -3 12 3 -3 5 -1 19
5 30 9 16 15 19 25 10 9 -8 15 -8 20 0 3 6 12 7 18 3 7 -4 6 1 -2 10 -12 15
-12 17 4 11 12 -5 16 -4 11 4 -4 7 1 10 14 7 11 -2 19 -1 19 3 -3 20 2 25 11
12 8 -13 10 -12 10 3 0 9 5 17 11 17 5 0 7 -5 3 -12 -4 -7 -3 -8 5 -4 6 4 9
12 5 17 -3 6 4 13 15 16 17 4 19 8 10 19 -10 12 -8 13 6 8 13 -5 16 -4 11 4
-4 7 -2 12 4 12 6 0 8 5 4 12 -5 7 -2 9 9 5 20 -8 43 18 26 29 -8 5 -9 3 -4
-6 5 -9 4 -11 -4 -6 -18 11 -1 28 23 22 19 -5 20 -4 4 8 -19 14 -25 32 -8 21
6 -3 10 -1 10 5 0 6 5 8 10 5 6 -3 10 -1 10 4 0 6 -4 11 -10 11 -5 0 -10 5
-10 11 0 5 4 7 10 4 6 -3 7 1 4 9 -3 9 -1 16 6 16 6 0 8 5 4 11 -4 8 12 10 55
7 33 -1 61 0 61 4 0 4 6 5 13 3 29 -10 67 -13 62 -4 -4 5 4 5 19 -1 19 -7 26
-6 26 2 0 6 9 3 20 -7 17 -15 20 -16 25 -3 4 10 15 13 30 10 21 -4 24 -1 21
24 -2 16 -5 29 -6 29 -1 0 -3 8 -5 18 -2 9 1 15 5 12 5 -3 12 -1 15 5 4 6 1 9
-6 8 -7 -2 -15 5 -17 16 -2 10 0 16 5 13 5 -4 10 0 10 7 0 8 -8 12 -21 9 -12
-3 -17 -1 -11 4 6 4 17 17 25 28 14 19 14 20 -6 2 -20 -17 -22 -17 -35 0 -9
11 -10 14 -1 9 7 -4 12 -2 12 6 0 8 -6 20 -12 27 -11 10 -9 11 7 6 20 -7 20
-6 1 9 -12 9 -15 16 -7 16 8 0 7 5 -4 16 -9 9 -14 23 -11 30 3 8 2 13 -2 13
-28 -4 -34 2 -16 16 19 15 19 15 0 8 -15 -5 -18 -3 -13 10 3 9 2 17 -4 17 -6
0 -7 6 -3 13 6 9 4 9 -8 -1 -18 -15 -25 -7 -22 25 0 12 -3 20 -7 17 -5 -3 -17
0 -26 6 -16 10 -16 11 2 6 19 -6 19 -5 3 7 -10 8 -14 17 -10 21 4 4 2 7 -3 6
-21 -5 -36 0 -30 10 3 6 1 10 -4 10 -23 0 -26 2 -34 22 -5 16 -10 18 -21 9
-10 -8 -19 -6 -38 9 -14 10 -29 16 -34 12 -5 -4 -3 0 4 9 9 13 9 16 -3 16 -8
0 -15 -5 -15 -11 0 -6 -5 -4 -10 4 -9 13 -11 13 -20 0 -6 -9 -10 -10 -10 -3 0
6 -7 19 -16 27 -12 13 -20 14 -37 4 -21 -10 -21 -10 -7 7 14 17 14 18 -10 5
-29 -16 -30 -16 -41 2 -7 11 -11 10 -19 -2 -8 -12 -10 -12 -10 -1 0 11 -3 11
-17 0 -10 -8 -14 -9 -10 -2 5 8 0 11 -13 10 -11 -1 -20 -6 -20 -12 0 -5 -4 -4
-9 4 -6 9 -10 10 -16 2 -5 -9 -10 -9 -21 0 -11 9 -18 8 -31 -2 -13 -11 -15
-11 -9 -1 10 16 -25 13 -36 -3 -5 -6 -8 -5 -8 3 0 6 -5 12 -11 12 -5 0 -7 -6
-4 -12 4 -7 0 -5 -8 5 -14 17 -15 17 -22 0 -6 -17 -8 -16 -25 4 -9 12 -19 21
-22 20 -2 -1 4 5 12 13 15 14 15 17 -4 33 -12 10 -15 15 -8 12 6 -3 12 -1 12
4 0 6 -5 11 -11 11 -5 0 -7 5 -3 12 4 7 3 8 -4 4 -7 -4 -12 -1 -12 6 -1 7 -7
2 -16 -12 l-15 -25 7 25 c6 22 5 23 -9 11 -9 -7 -15 -17 -12 -21 3 -5 0 -12
-6 -16 -7 -4 -9 -3 -5 4 3 6 2 13 -3 16 -5 3 -11 -4 -14 -16 -4 -12 -9 -19
-13 -16 -9 9 -33 -15 -26 -26 3 -5 -1 -5 -9 0 -8 5 -17 9 -21 9 -5 0 -8 3 -8
8 0 4 0 14 0 23 0 8 4 13 8 10 4 -2 8 11 8 30 0 24 -4 33 -13 30 -7 -3 -13 -1
-13 4 0 9 15 14 33 11 5 -1 6 3 2 9 -3 6 -11 8 -16 5 -13 -9 -11 9 4 24 10 11
10 13 0 7 -12 -7 -18 5 -14 27 1 5 -3 6 -9 2 -5 -3 -10 -1 -10 4 0 6 -5 11
-12 11 -6 0 -3 -10 8 -22z m31 -113 c0 -8 -4 -12 -9 -9 -5 3 -6 10 -3 15 9 13
12 11 12 -6z m-277 -99 c0 -2 -7 -7 -16 -10 -8 -3 -12 -2 -9 4 6 10 25 14 25
6z m834 -44 c3 -5 -1 -9 -9 -9 -8 0 -12 4 -9 9 3 4 7 8 9 8 2 0 6 -4 9 -8z
m-1164 -407 c0 -2 -6 -5 -13 -8 -8 -3 -14 1 -14 8 0 7 6 11 14 8 7 -3 13 -6
13 -8z m-7 -180 c-3 -9 -8 -14 -10 -11 -3 3 -2 9 2 15 9 16 15 13 8 -4z m962
-385 c3 -6 -1 -7 -9 -4 -18 7 -21 14 -7 14 6 0 13 -4 16 -10z m-295 -385 c0
-2 -6 -5 -13 -8 -8 -3 -14 1 -14 8 0 7 6 11 14 8 7 -3 13 -6 13 -8z m-760 -19
c0 -3 -4 -8 -10 -11 -5 -3 -10 -1 -10 4 0 6 5 11 10 11 6 0 10 -2 10 -4z m65
-16 c-3 -4 0 -11 5 -13 6 -3 5 -4 -1 -3 -7 1 -13 10 -15 19 -1 9 2 15 7 11 5
-3 7 -9 4 -14z m135 -369 c0 -5 -7 -11 -14 -14 -10 -4 -13 -1 -9 9 6 15 23 19
23 5z"/>
<path d="M1215 1970 c-3 -5 -1 -10 4 -10 6 0 11 5 11 10 0 6 -2 10 -4 10 -3 0
-8 -4 -11 -10z"/>
<path d="M1870 1826 c0 -2 7 -7 16 -10 8 -3 12 -2 9 4 -6 10 -25 14 -25 6z"/>
<path d="M246 678 c3 -5 10 -6 15 -3 13 9 11 12 -6 12 -8 0 -12 -4 -9 -9z"/>
<path d="M255 480 c-3 -5 -1 -10 4 -10 6 0 11 5 11 10 0 6 -2 10 -4 10 -3 0
-8 -4 -11 -10z"/>
</g>
</svg>
